PathFileType	4	(X/Y/Z)	/Users/itak/Documents/Research/Walk-IL/dataset/trc/00453_00167.trc
DataRate	CameraRate	NumFrames	NumMarkers	Units	OrigDataRate	OrigDataStartFrame	OrigNumFrames
100.000000	100.000000	4	53	mm	100.000000	469	536
Frame#	Time	RPSI			LPSI			L3			STRN			T10			C7			CLAV			RBAK			LBAK			LSHO			LUPA			LAEL			LAOL			LWTS			LWPS			LFRA			LIFD			LHPS			LHTS			RSHO			RUPA			RAEL			RAOL			RWTS			RWPS			RFRA			RIFD			RHTS			RHPS			RBHD			LFHD			RFHD			LBHD			LHIP			RHIP			RASI			LASI			LKNE			LTHI			LANK			LTIP			LTOE			LMT1			LMT5			LHEE			RKNE			RTHI			RANK			RTIP			RTOE			RMT1			RMT5			RHEE			
		X1	Y1	Z1	X2	Y2	Z2	X3	Y3	Z3	X4	Y4	Z4	X5	Y5	Z5	X6	Y6	Z6	X7	Y7	Z7	X8	Y8	Z8	X9	Y9	Z9	X10	Y10	Z10	X11	Y11	Z11	X12	Y12	Z12	X13	Y13	Z13	X14	Y14	Z14	X15	Y15	Z15	X16	Y16	Z16	X17	Y17	Z17	X18	Y18	Z18	X19	Y19	Z19	X20	Y20	Z20	X21	Y21	Z21	X22	Y22	Z22	X23	Y23	Z23	X24	Y24	Z24	X25	Y25	Z25	X26	Y26	Z26	X27	Y27	Z27	X28	Y28	Z28	X29	Y29	Z29	X30	Y30	Z30	X31	Y31	Z31	X32	Y32	Z32	X33	Y33	Z33	X34	Y34	Z34	X35	Y35	Z35	X36	Y36	Z36	X37	Y37	Z37	X38	Y38	Z38	X39	Y39	Z39	X40	Y40	Z40	X41	Y41	Z41	X42	Y42	Z42	X43	Y43	Z43	X44	Y44	Z44	X45	Y45	Z45	X46	Y46	Z46	X47	Y47	Z47	X48	Y48	Z48	X49	Y49	Z49	X50	Y50	Z50	X51	Y51	Z51	X52	Y52	Z52	X53	Y53	Z53	

470	4.69	1046.779296875	935.615478515625	1099.9912109375	1127.51025390625	937.6586303710938	984.3722534179688	1089.546020507812	1040.310180664062	1070.0185546875	1324.128784179688	1236.8173828125	1211.67529296875	1075.778076171875	1164.599731445312	1064.90478515625	1123.44873046875	1433.105712890625	1119.130126953125	1293.778686523438	1351.17431640625	1192.487915039062	1024.109985351562	1310.190307617188	1165.236328125	1141.6416015625	1386.967529296875	1015.562683105469	1271.557250976562	1412.648803710938	992.2864990234375	1307.438842773438	1300.830444335938	895.4959716796875	1338.860229492188	1089.96240234375	853.7969970703125	1238.782958984375	1072.891967773438	869.8978881835938	1398.866333007812	904.2281494140625	922.64990234375	1380.702026367188	873.8154907226562	857.38818359375	1365.852416992188	1003.676330566406	852.9607543945312	1441.87744140625	753.5301513671875	961.1481323242188	1409.315673828125	797.0672607421875	876.6673583984375	1440.56103515625	830.7410888671875	932.3958740234375	1104.451171875	1398.818359375	1291.906616210938	1050.977905273438	1336.52490234375	1346.485961914062	1019.369018554688	1052.175048828125	1396.924560546875	994.2828979492188	1032.2080078125	1336.762084960938	1144.976806640625	862.919921875	1419.08740234375	1061.80908203125	840.9041748046875	1434.610229492188	1022.310668945312	994.5360717773438	1409.242309570312	1155.845703125	704.1152954101562	1433.943603515625	1160.311889648438	764.772216796875	1443.54296875	1085.066772460938	755.8389282226562	1446.566528320312	1135.119140625	1625.037963867188	1220.188110351562	1331.53369140625	1656.494140625	1164.389282226562	1259.094116210938	1655.69970703125	1272.080444335938	1219.195678710938	1628.84423828125	1064.304443359375	1310.545043945312	844.2702026367188	967.5269165039062	1069.665405273438	840.11376953125	1283.731811523438	1186.079833984375	889.8580932617188	1287.649169921875	1343.790893554688	887.1339111328125	1085.37646484375	1362.086059570312	424.2448120117188	1027.079711914062	1376.360473632812	581.5919799804688	1011.626342773438	1238.82080078125	18.21980285644531	949.1036987304688	1333.62841796875	269.8525695800781	995.9199829101562	1390.393920898438	32.11761093139648	1136.256225585938	1312.517700195312	41.71498489379883	1119.079833984375	1371.447509765625	27.5384578704834	1021.568969726562	1163.804931640625	14.58171081542969	966.1255493164062	1152.205444335938	453.7199401855469	1314.718627929688	1142.716430664062	696.7100830078125	1359.0478515625	1075.475708007812	31.98670196533203	1266.027954101562	1132.127075195312	307.8098449707031	1317.5703125	1284.171875	35.54347229003906	1342.921142578125	1248.980102539062	43.91035079956055	1280.819702148438	1174.00830078125	32.97288131713867	1361.289184570312	1046.83349609375	20.80486869812012	1191.735595703125	
471	4.7	1046.624145507812	935.697998046875	1099.669189453125	1127.292724609375	937.6932373046875	984.1014404296875	1089.478881835938	1040.382080078125	1069.724609375	1324.137451171875	1236.917114257812	1211.234130859375	1075.715087890625	1164.723388671875	1064.47119140625	1123.43896484375	1433.157592773438	1118.633056640625	1293.811157226562	1351.23681640625	1191.984130859375	1024.110595703125	1310.313110351562	1164.801147460938	1141.639038085938	1387.007568359375	1015.099182128906	1271.6259765625	1412.724731445312	991.8203735351562	1307.648681640625	1300.986328125	895.035888671875	1339.323852539062	1090.172607421875	853.3078002929688	1239.240844726562	1073.004638671875	869.3073120117188	1399.552978515625	904.6112060546875	922.3864135742188	1381.524169921875	874.1038818359375	857.1322021484375	1366.432495117188	1003.93994140625	852.5645751953125	1442.790161132812	754.0164794921875	961.0808715820312	1410.274169921875	797.4281616210938	876.5244750976562	1441.3759765625	831.2078857421875	932.2506713867188	1104.496459960938	1399.068237304688	1291.408203125	1051.064575195312	1336.851928710938	1346.094482421875	1019.727966308594	1052.454467773438	1396.974853515625	994.5501708984375	1032.295288085938	1336.863403320312	1146.312133789062	863.9759521484375	1419.47021484375	1063.279174804688	841.552734375	1435.22021484375	1022.9482421875	994.940673828125	1409.441650390625	1158.076538085938	705.2967529296875	1434.732055664062	1162.177490234375	765.9589233398438	1444.106201171875	1087.071533203125	756.708740234375	1447.426879882812	1135.008666992188	1625.094482421875	1219.499877929688	1331.378540039062	1656.650512695312	1163.666748046875	1258.89697265625	1655.899047851562	1271.337524414062	1219.0712890625	1628.77978515625	1063.592895507812	1310.415283203125	844.3125	967.2677001953125	1069.509765625	840.1983032226562	1283.4462890625	1185.990844726562	889.83740234375	1287.360229492188	1343.717651367188	887.1782836914062	1085.078369140625	1362.000366210938	424.2730102539062	1026.910278320312	1376.215209960938	581.5982666015625	1011.386840820312	1238.813232421875	18.18928146362305	949.0838012695312	1333.556396484375	269.8347778320312	995.873779296875	1390.483154296875	32.23785400390625	1136.035400390625	1312.645629882812	41.90977096557617	1118.99072265625	1371.433349609375	27.51424217224121	1021.498046875	1163.7890625	14.58949756622314	966.0911254882812	1151.971313476562	453.7840881347656	1314.437133789062	1142.610961914062	696.4403076171875	1358.964965820312	1075.431396484375	31.98627662658691	1266.037353515625	1132.011596679688	307.8423461914062	1317.384033203125	1284.144409179688	35.55221939086914	1342.937744140625	1248.949951171875	43.96916961669922	1280.831420898438	1173.9892578125	32.96530532836914	1361.284057617188	1046.815063476562	20.77146339416504	1191.77294921875	
472	4.71	1046.450805664062	935.7576904296875	1099.394409179688	1127.043579101562	937.7174072265625	983.8556518554688	1089.3984375	1040.45263671875	1069.465454101562	1324.148071289062	1237.003051757812	1210.804077148438	1075.65673828125	1164.846923828125	1064.030517578125	1123.43701171875	1433.2060546875	1118.147338867188	1293.845092773438	1351.27880859375	1191.487426757812	1024.123046875	1310.415893554688	1164.408935546875	1141.651977539062	1387.047119140625	1014.646423339844	1271.696044921875	1412.791625976562	991.3624267578125	1307.859741210938	1301.131958007812	894.589599609375	1339.778564453125	1090.3759765625	852.8182983398438	1239.681884765625	1073.122802734375	868.7061767578125	1400.199829101562	904.9624633789062	922.0763549804688	1382.295654296875	874.380615234375	856.8272094726562	1366.984985351562	1004.194458007812	852.1445922851562	1443.635009765625	754.4561767578125	960.93115234375	1411.168212890625	797.7673950195312	876.313232421875	1442.14111328125	831.6336059570312	932.0401611328125	1104.548950195312	1399.306884765625	1290.939575195312	1051.16650390625	1337.159301757812	1345.736694335938	1020.089599609375	1052.726318359375	1397.014770507812	994.7869873046875	1032.389038085938	1336.956176757812	1147.547241210938	864.9359130859375	1419.758178710938	1064.656127929688	842.15380859375	1435.765258789062	1023.551208496094	995.3162231445312	1409.60791015625	1160.143432617188	706.3880004882812	1435.384521484375	1163.881591796875	767.0283813476562	1444.520141601562	1088.932983398438	757.5116577148438	1448.16748046875	1134.903930664062	1625.135620117188	1218.841918945312	1331.214721679688	1656.796020507812	1162.950561523438	1258.693725585938	1656.085083007812	1270.60693359375	1218.934448242188	1628.699584960938	1062.911499023438	1310.268188476562	844.3405151367188	967.0068969726562	1069.374755859375	840.278564453125	1283.178955078125	1185.922485351562	889.8125	1287.089477539062	1343.634033203125	887.2155151367188	1084.7841796875	1361.918212890625	424.298095703125	1026.738525390625	1376.076049804688	581.6043701171875	1011.146118164062	1238.799926757812	18.14361953735352	949.0762329101562	1333.494506835938	269.8202209472656	995.8226928710938	1390.58349609375	32.3943977355957	1135.781860351562	1312.7802734375	42.11012649536133	1118.891845703125	1371.420288085938	27.48827743530273	1021.418640136719	1163.775512695312	14.60144329071045	966.0516967773438	1151.762817382812	453.8586120605469	1314.198974609375	1142.52880859375	696.164794921875	1358.901733398438	1075.3876953125	31.98789024353027	1266.05126953125	1131.917236328125	307.8738708496094	1317.217407226562	1284.119384765625	35.56486129760742	1342.957763671875	1248.91943359375	44.02781677246094	1280.841674804688	1173.970581054688	32.95859909057617	1361.278198242188	1046.795043945312	20.73589706420898	1191.803344726562	
473	4.72	1046.264038085938	935.7947387695312	1099.168334960938	1126.771484375	937.7289428710938	983.6359252929688	1089.303100585938	1040.521362304688	1069.233276367188	1324.160278320312	1237.076171875	1210.3857421875	1075.6005859375	1164.960327148438	1063.590209960938	1123.439575195312	1433.249389648438	1117.66650390625	1293.879272460938	1351.302612304688	1191.000610351562	1024.147216796875	1310.497314453125	1164.0615234375	1141.679321289062	1387.084594726562	1014.197998046875	1271.766967773438	1412.848876953125	990.91259765625	1308.068359375	1301.264404296875	894.1566772460938	1340.21923828125	1090.5693359375	852.3291625976562	1240.103149414062	1073.240112304688	868.0992431640625	1400.804321289062	905.2771606445312	921.7191772460938	1383.014892578125	874.6403198242188	856.47265625	1367.508178710938	1004.435607910156	851.7025146484375	1444.40966796875	754.843994140625	960.697021484375	1411.993530273438	798.0795288085938	876.031982421875	1442.854125976562	832.0128173828125	931.7626342773438	1104.606567382812	1399.535888671875	1290.498413085938	1051.27783203125	1337.444458007812	1345.41162109375	1020.457336425781	1052.9921875	1397.046020507812	994.9995727539062	1032.49462890625	1337.046508789062	1148.67333984375	865.7874755859375	1419.952026367188	1065.9306640625	842.7013549804688	1436.241455078125	1024.121337890625	995.6603393554688	1409.740478515625	1162.034912109375	707.3782348632812	1435.91064453125	1165.42626953125	767.9862060546875	1444.807983398438	1090.634399414062	758.2352905273438	1448.78076171875	1134.803344726562	1625.163208007812	1218.215942382812	1331.045654296875	1656.928955078125	1162.245361328125	1258.492309570312	1656.255859375	1269.896240234375	1218.785766601562	1628.609252929688	1062.260986328125	1310.103759765625	844.3519287109375	966.7433471679688	1069.251953125	840.3528442382812	1282.930419921875	1185.866333007812	889.7816162109375	1286.83740234375	1343.539184570312	887.2445068359375	1084.4951171875	1361.840698242188	424.319091796875	1026.5654296875	1375.947021484375	581.611083984375	1010.906188964844	1238.78515625	18.09053421020508	949.0741577148438	1333.4443359375	269.8103942871094	995.765380859375	1390.693115234375	32.58493423461914	1135.50390625	1312.916137695312	42.30761337280273	1118.786499023438	1371.408325195312	27.46182823181152	1021.333374023438	1163.764770507812	14.61702251434326	966.0091552734375	1151.580932617188	453.9387817382812	1314.006103515625	1142.463134765625	695.8810424804688	1358.859252929688	1075.343872070312	31.99175453186035	1266.070068359375	1131.841796875	307.9025573730469	1317.0703125	1284.096557617188	35.58191680908203	1342.981689453125	1248.889770507812	44.08717346191406	1280.85107421875	1173.952514648438	32.95261001586914	1361.2724609375	1046.773681640625	20.69717025756836	1191.826782226562	
